<?xml version="1.0" standalone="no"?>
<!DOCTYPE svg PUBLIC "-//W3C//DTD SVG 20010904//EN"
 "http://www.w3.org/TR/2001/REC-SVG-20010904/DTD/svg10.dtd">
<svg version="1.0" xmlns="http://www.w3.org/2000/svg"
 width="564.000000pt" height="441.000000pt" viewBox="0 0 564.000000 441.000000"
 preserveAspectRatio="xMidYMid meet">

<g transform="translate(0.000000,441.000000) scale(0.100000,-0.100000)"
fill="#000000" stroke="none">
<path d="M2873 3663 c9 -2 25 -2 35 0 9 3 1 5 -18 5 -19 0 -27 -2 -17 -5z"/>
<path d="M2698 3653 c7 -3 16 -2 19 1 4 3 -2 6 -13 5 -11 0 -14 -3 -6 -6z"/>
<path d="M2763 3653 c9 -2 23 -2 30 0 6 3 -1 5 -18 5 -16 0 -22 -2 -12 -5z"/>
<path d="M3003 3653 c9 -2 23 -2 30 0 6 3 -1 5 -18 5 -16 0 -22 -2 -12 -5z"/>
<path d="M2360 3569 c-19 -11 -26 -17 -15 -13 11 3 28 9 38 11 9 3 17 9 17 14
0 11 1 12 -40 -12z"/>
<path d="M3349 3563 c10 -4 11 -7 2 -12 -6 -4 4 -7 23 -7 40 1 34 14 -9 20
-17 2 -24 1 -16 -1z"/>
<path d="M3500 3470 c-9 -6 -10 -10 -3 -10 6 0 15 5 18 10 8 12 4 12 -15 0z"/>
<path d="M3556 3446 c3 -8 13 -17 22 -21 13 -5 13 -2 -3 15 -21 24 -26 25 -19
6z"/>
<path d="M1984 3358 l-19 -23 23 19 c21 18 27 26 19 26 -2 0 -12 -10 -23 -22z"/>
<path d="M3683 3348 c-1 -11 1 -16 5 -12 4 5 11 12 15 15 5 3 2 9 -5 12 -9 3
-14 -3 -15 -15z"/>
<path d="M1902 3283 c-21 -21 -28 -30 -17 -20 12 9 25 14 30 10 4 -5 5 -3 1 4
-8 15 30 37 46 27 7 -4 8 -3 4 4 -12 19 -25 14 -64 -25z"/>
<path d="M3864 3252 c3 -5 0 -13 -6 -15 -9 -4 -10 -6 -1 -6 17 -1 25 16 12 25
-7 4 -9 3 -5 -4z"/>
<path d="M1784 3168 l-19 -23 23 19 c21 18 27 26 19 26 -2 0 -12 -10 -23 -22z"/>
<path d="M3930 3186 c0 -2 8 -10 18 -17 15 -13 16 -12 3 4 -13 16 -21 21 -21
13z"/>
<path d="M1816 3142 c-3 -5 1 -9 9 -9 8 0 12 4 9 9 -3 4 -7 8 -9 8 -2 0 -6 -4
-9 -8z"/>
<path d="M1858 3121 c-72 -46 -121 -169 -88 -221 5 -9 5 -19 -1 -26 -7 -8 -6
-15 2 -20 7 -4 9 -3 5 4 -3 6 -2 13 3 16 11 7 63 -33 56 -44 -3 -5 0 -12 6
-16 8 -5 9 -3 4 6 -6 10 -4 12 7 7 12 -4 17 5 20 43 12 119 141 207 252 170
32 -10 36 -15 36 -47 0 -71 -57 -130 -185 -189 -91 -42 -132 -75 -140 -115 -6
-26 -2 -36 24 -63 17 -18 28 -36 24 -41 -5 -4 -2 -5 5 -1 7 4 26 -3 43 -15 30
-21 33 -21 44 -5 10 13 14 14 19 4 3 -7 4 -4 1 7 -6 25 45 82 91 101 47 20
116 18 141 -3 46 -41 47 -165 2 -255 -87 -174 -254 -250 -465 -213 -192 34
-284 158 -284 385 0 96 57 260 122 353 l20 28 -48 45 c-46 42 -49 43 -66 26
-24 -25 -83 -147 -104 -217 -12 -40 -18 -93 -19 -160 0 -174 53 -293 181 -405
52 -45 61 -57 51 -70 -10 -13 -10 -13 5 -2 14 11 21 11 42 -3 14 -10 24 -20
22 -24 -3 -4 3 -7 12 -8 9 -1 49 -14 87 -29 62 -25 83 -28 180 -28 136 0 199
21 279 95 51 46 116 151 116 186 0 7 8 13 18 13 11 0 13 3 6 8 -7 4 -14 39
-17 77 -3 39 -8 79 -12 90 -6 19 -3 20 34 17 39 -4 40 -5 47 -50 9 -61 -6
-132 -31 -146 -11 -6 -22 -12 -24 -14 -10 -6 95 -102 111 -102 10 0 27 15 38
32 18 31 19 45 13 265 l-6 233 371 0 372 0 0 -40 0 -40 -267 0 c-148 -1 -286
-3 -308 -6 -83 -12 -134 -55 -135 -112 0 -46 21 -81 74 -127 38 -32 44 -41 33
-54 -10 -14 -10 -14 4 -3 13 10 23 9 54 -4 24 -10 52 -14 74 -10 20 3 41 7 47
8 6 1 11 6 12 12 1 6 6 32 13 58 11 41 10 51 -8 87 -20 40 -20 41 -2 41 13 0
19 -7 19 -23 0 -65 147 -187 225 -187 80 0 122 100 75 178 l-20 32 55 0 55 0
0 -99 c0 -70 -4 -102 -13 -110 -8 -6 -18 -7 -22 -3 -5 4 -5 2 -2 -5 4 -6 2
-13 -5 -15 -15 -5 56 -95 81 -103 28 -9 48 4 63 38 10 24 12 86 10 259 l-4
227 92 3 93 3 -44 47 c-40 44 -48 48 -94 50 -51 2 -101 31 -88 51 3 6 2 7 -4
4 -6 -4 -19 0 -29 8 -29 22 -34 18 -34 -25 l0 -40 -369 0 c-341 1 -370 2 -385
19 -9 10 -13 21 -9 25 4 4 1 5 -7 1 -8 -3 -27 6 -42 20 -15 14 -30 25 -33 25
-3 0 -5 -20 -5 -44 l0 -43 -69 -2 c-82 -2 -108 15 -100 65 1 3 -11 18 -25 33
-15 15 -23 31 -19 36 5 4 3 5 -4 1 -6 -3 -18 2 -25 11 -17 24 -84 68 -130 88
-21 8 -64 15 -96 15 -47 0 -67 -6 -104 -29z m445 -294 c-3 -6 -1 -7 4 -4 6 4
16 0 23 -8 7 -8 28 -15 46 -15 20 0 34 -5 34 -12 0 -9 4 -8 10 2 17 27 12 -9
-6 -40 -19 -31 -55 -55 -99 -64 -24 -5 -37 0 -68 25 -30 24 -36 34 -25 41 9 6
6 7 -9 3 -13 -3 -23 -3 -23 0 0 12 54 64 61 60 4 -3 7 1 6 8 0 6 1 23 1 36 l2
24 25 -23 c13 -12 22 -27 18 -33z m463 -276 c-17 -32 -43 -51 -70 -51 -39 0 0
75 49 96 37 16 44 1 21 -45z m329 21 c-8 -37 -36 -64 -70 -68 -22 -2 -25 1
-19 19 9 30 24 47 59 68 35 22 39 19 30 -19z"/>
<path d="M2712 2550 c-23 -22 -27 -30 -14 -30 7 1 46 50 39 50 -2 0 -13 -9
-25 -20z"/>
<path d="M3049 2563 c-13 -16 -12 -17 4 -4 16 13 21 21 13 21 -2 0 -10 -8 -17
-17z"/>
<path d="M1710 3078 c-15 -21 -17 -28 -6 -19 16 13 41 51 33 51 -2 0 -14 -15
-27 -32z"/>
<path d="M990 3031 c0 -5 7 -12 16 -15 14 -5 15 -4 4 9 -14 17 -20 19 -20 6z"/>
<path d="M4030 3030 c0 -5 5 -10 11 -10 5 0 7 5 4 10 -3 6 -8 10 -11 10 -2 0
-4 -4 -4 -10z"/>
<path d="M4850 3031 c0 -6 5 -11 11 -11 8 0 8 -5 -1 -15 -7 -9 -8 -15 -2 -15
17 0 22 28 6 40 -10 9 -14 9 -14 1z"/>
<path d="M661 3013 c0 -12 2 -13 6 -5 4 10 8 10 21 0 15 -12 16 -11 3 5 -7 9
-17 17 -22 17 -5 0 -9 -8 -8 -17z"/>
<path d="M4520 3026 c0 -2 7 -7 16 -10 8 -3 12 -2 9 4 -6 10 -25 14 -25 6z"/>
<path d="M995 2310 c0 -388 1 -546 2 -352 2 193 2 511 0 705 -1 193 -2 35 -2
-353z"/>
<path d="M1030 3006 c0 -2 8 -10 18 -17 15 -13 16 -12 3 4 -13 16 -21 21 -21
13z"/>
<path d="M4567 3000 c10 -11 10 -17 0 -29 -11 -14 -10 -14 6 -2 16 13 22 10
53 -20 21 -21 32 -39 29 -49 -5 -12 -4 -12 6 -3 10 10 7 19 -17 44 -28 30
-102 86 -77 59z"/>
<path d="M710 2996 c0 -2 8 -10 18 -17 15 -13 16 -12 3 4 -13 16 -21 21 -21
13z"/>
<path d="M665 2285 c0 -390 1 -552 2 -358 2 193 2 513 0 710 -1 197 -2 39 -2
-352z"/>
<path d="M756 2955 c4 -8 11 -15 16 -15 6 0 5 6 -2 15 -7 8 -14 15 -16 15 -2
0 -1 -7 2 -15z"/>
<path d="M2126 2943 c-6 -14 -5 -15 5 -6 7 7 10 15 7 18 -3 3 -9 -2 -12 -12z"/>
<path d="M796 2917 c3 -10 9 -15 12 -12 3 3 0 11 -7 18 -10 9 -11 8 -5 -6z"/>
<path d="M1126 2917 c3 -10 9 -15 12 -12 3 3 0 11 -7 18 -10 9 -11 8 -5 -6z"/>
<path d="M4093 2911 c0 -11 5 -18 9 -15 4 3 5 11 1 19 -7 21 -12 19 -10 -4z"/>
<path d="M813 2850 c0 -25 2 -35 4 -22 2 12 2 32 0 45 -2 12 -4 2 -4 -23z"/>
<path d="M4675 2170 c0 -399 1 -562 2 -362 2 199 2 525 0 725 -1 199 -2 36 -2
-363z"/>
<path d="M1575 2849 c-9 -17 -14 -33 -12 -36 3 -2 8 5 12 16 3 12 10 19 14 17
4 -3 7 4 7 15 0 26 -3 24 -21 -12z"/>
<path d="M1142 2840 c0 -19 2 -27 5 -17 2 9 2 25 0 35 -3 9 -5 1 -5 -18z"/>
<path d="M3560 2843 c0 -6 8 -17 18 -24 16 -13 16 -13 2 6 -8 11 -16 22 -17
24 -2 2 -3 0 -3 -6z"/>
<path d="M5005 2170 c0 -349 1 -492 2 -317 2 174 2 460 0 635 -1 174 -2 31 -2
-318z"/>
<path d="M4170 2746 c0 -8 4 -17 9 -20 5 -4 7 3 4 14 -6 23 -13 26 -13 6z"/>
<path d="M1520 2699 c0 -5 5 -7 10 -4 6 3 10 8 10 11 0 2 -4 4 -10 4 -5 0 -10
-5 -10 -11z"/>
<path d="M2196 2667 c3 -10 9 -15 12 -12 3 3 0 11 -7 18 -10 9 -11 8 -5 -6z"/>
<path d="M2056 2627 c3 -10 9 -15 12 -12 3 3 0 11 -7 18 -10 9 -11 8 -5 -6z"/>
<path d="M4211 2635 c1 -19 18 -51 18 -35 0 8 -4 22 -9 30 -5 8 -9 11 -9 5z"/>
<path d="M3206 2383 c-6 -14 -5 -15 5 -6 7 7 10 15 7 18 -3 3 -9 -2 -12 -12z"/>
<path d="M2806 2324 c-3 -8 -2 -12 4 -9 16 10 12 -48 -6 -73 -15 -22 -18 -22
-270 -22 -286 0 -274 4 -202 -71 18 -19 32 -38 33 -43 0 -5 7 -11 15 -13 13
-4 13 -3 0 6 -11 8 8 11 73 11 59 0 86 -3 82 -10 -4 -6 -16 -8 -28 -5 -17 5
-19 4 -7 -4 13 -10 8 -15 -13 -12 -4 0 -6 -2 -5 -6 1 -5 -10 -29 -26 -56 -31
-52 -36 -100 -14 -141 21 -40 104 -122 139 -136 l30 -13 -23 -24 c-49 -53
-115 -71 -170 -48 -32 13 -20 -14 26 -59 34 -35 54 -46 89 -51 59 -9 100 1
137 32 17 13 35 21 41 17 8 -4 9 -3 5 4 -4 6 17 44 47 84 30 40 59 83 66 96 7
12 17 20 23 16 7 -4 8 -3 4 4 -4 7 0 22 8 34 15 21 16 19 16 -40 0 -54 -4 -67
-25 -88 l-25 -25 29 -36 c17 -20 28 -40 25 -45 -3 -4 1 -5 9 -2 8 3 18 1 21
-4 11 -18 57 0 68 27 6 16 10 119 9 259 l-2 232 116 0 115 0 0 -44 c0 -43 -1
-44 -37 -51 -112 -21 -173 -80 -173 -167 0 -60 24 -109 79 -162 25 -24 37 -43
30 -47 -7 -4 -5 -9 6 -12 9 -4 13 -3 10 3 -8 13 -4 13 39 -5 51 -21 95 -2 130
57 22 38 26 57 28 141 1 60 6 97 12 98 6 0 21 2 34 5 20 3 23 1 18 -18 -3 -13
-3 -17 0 -10 5 10 13 7 34 -13 l28 -27 -23 -34 c-24 -35 -45 -112 -45 -162 0
-42 53 -143 98 -186 23 -22 38 -44 35 -49 -3 -6 -1 -7 5 -3 6 3 31 -7 56 -24
96 -65 229 -107 315 -98 46 4 48 3 24 -26 -10 -12 -2 -7 17 10 19 17 53 36 76
42 62 18 158 84 202 141 116 147 150 325 95 494 -30 93 -56 139 -122 217 -25
30 -45 58 -44 62 2 4 0 7 -5 6 -4 -1 -18 4 -30 11 -39 21 -37 5 4 -46 54 -66
81 -119 99 -194 51 -219 -46 -460 -227 -558 -33 -19 -64 -29 -75 -25 -13 4
-15 3 -4 -4 20 -15 -112 -35 -174 -26 -54 7 -146 38 -181 61 -39 25 -59 102
-44 170 11 49 58 133 74 133 5 0 1 -10 -8 -22 -30 -43 -38 -63 -12 -33 14 17
25 33 26 38 1 19 2 23 17 39 21 24 98 48 151 48 l45 0 -6 -35 c-3 -19 -15 -49
-27 -65 -18 -25 -19 -33 -8 -52 7 -13 11 -27 10 -31 -1 -5 2 -6 8 -2 6 4 24
-5 41 -19 17 -15 35 -23 41 -20 17 11 48 88 48 122 0 64 -58 138 -145 185 -60
32 -154 30 -223 -4 -51 -25 -53 -26 -50 -6 5 33 48 56 131 71 89 15 115 33
123 88 l7 38 123 0 c143 0 147 3 80 69 l-43 42 -86 -2 c-84 -2 -86 -2 -130 35
-57 46 -71 47 -63 1 5 -25 3 -35 -6 -36 -7 0 -76 0 -152 1 l-139 1 -56 46 -56
46 -3 -46 -3 -46 -116 -3 -115 -3 -37 30 c-49 42 -123 95 -132 95 -4 0 -10 -7
-13 -16z m783 -224 c-9 -5 -49 -14 -90 -21 -41 -6 -79 -16 -86 -21 -7 -5 -18
-6 -24 -2 -8 4 -9 3 -5 -4 5 -8 -3 -12 -23 -12 -29 0 -31 3 -31 35 l0 35 138
0 c90 -1 132 -4 121 -10z m-781 -57 c-17 -38 -59 -103 -67 -103 -4 0 -22 15
-40 34 l-33 34 32 17 c33 17 99 43 112 44 4 1 2 -11 -4 -26z m-124 -159 c-36
-30 -92 -54 -128 -54 -11 0 -16 9 -16 28 0 36 36 95 53 86 6 -4 9 -3 4 1 -4 5
3 19 15 32 l22 23 43 -42 44 -43 -37 -31z m532 -35 c-8 -50 -24 -82 -36 -74
-6 3 -7 -1 -4 -9 4 -10 -5 -20 -25 -31 l-31 -16 0 43 c1 24 7 54 15 68 8 14
14 22 15 18 0 -4 11 4 25 17 36 37 49 32 41 -16z"/>
<path d="M4282 2310 c0 -14 2 -19 5 -12 2 6 2 18 0 25 -3 6 -5 1 -5 -13z"/>
<path d="M2546 2263 c-6 -14 -5 -15 5 -6 7 7 10 15 7 18 -3 3 -9 -2 -12 -12z"/>
<path d="M2436 2262 c-2 -4 4 -8 14 -8 10 0 16 4 14 8 -3 4 -9 8 -14 8 -5 0
-11 -4 -14 -8z"/>
<path d="M4293 2195 c0 -22 2 -30 4 -17 2 12 2 30 0 40 -3 9 -5 -1 -4 -23z"/>
<path d="M4291 2124 c0 -11 3 -14 6 -6 3 7 2 16 -1 19 -3 4 -6 -2 -5 -13z"/>
<path d="M4285 2089 c-4 -6 -5 -12 -2 -15 2 -3 7 2 10 11 7 17 1 20 -8 4z"/>
<path d="M1466 2005 c8 -37 14 -45 14 -19 0 10 -5 26 -10 34 -8 11 -9 7 -4
-15z"/>
<path d="M3646 1802 c-2 -4 4 -8 14 -8 10 0 16 4 14 8 -3 4 -9 8 -14 8 -5 0
-11 -4 -14 -8z"/>
<path d="M2563 1715 c0 -8 4 -12 9 -9 5 3 6 10 3 15 -9 13 -12 11 -12 -6z"/>
<path d="M3576 1703 c-6 -14 -5 -15 5 -6 7 7 10 15 7 18 -3 3 -9 -2 -12 -12z"/>
<path d="M2820 1635 c-7 -9 -8 -15 -2 -15 5 0 12 7 16 15 3 8 4 15 2 15 -2 0
-9 -7 -16 -15z"/>
<path d="M1601 1590 c14 -31 19 -36 19 -24 0 6 -7 19 -16 30 -14 18 -14 18 -3
-6z"/>
<path d="M990 1581 c0 -11 4 -22 9 -25 4 -3 6 6 3 19 -5 30 -12 33 -12 6z"/>
<path d="M4521 1583 c-1 -30 43 -81 54 -63 5 8 4 11 -2 7 -13 -8 -32 13 -43
50 -7 23 -8 24 -9 6z"/>
<path d="M699 1517 c29 -32 28 -31 28 -12 0 8 -3 13 -5 10 -3 -3 -15 3 -26 12
-15 13 -14 10 3 -10z"/>
<path d="M1020 1533 c0 -6 8 -17 18 -24 16 -13 16 -13 2 6 -8 11 -16 22 -17
24 -2 2 -3 0 -3 -6z"/>
<path d="M1627 1529 c7 -7 15 -10 18 -7 3 3 -2 9 -12 12 -14 6 -15 5 -6 -5z"/>
<path d="M4912 1495 c15 -16 20 -17 30 -6 11 11 10 13 0 7 -7 -4 -21 -2 -30 5
-15 12 -15 11 0 -6z"/>
<path d="M4594 1481 c20 -22 26 -25 26 -13 0 4 -10 13 -22 21 -23 14 -23 14
-4 -8z"/>
<path d="M760 1466 c0 -2 8 -10 18 -17 15 -13 16 -12 3 4 -13 16 -21 21 -21
13z"/>
<path d="M805 1440 c-3 -5 -1 -10 4 -10 6 0 11 5 11 10 0 6 -2 10 -4 10 -3 0
-8 -4 -11 -10z"/>
<path d="M4980 1446 c0 -2 7 -9 15 -16 9 -7 15 -8 15 -2 0 5 -7 12 -15 16 -8
3 -15 4 -15 2z"/>
<path d="M1696 1372 c-2 -4 -1 -14 4 -22 7 -11 9 -9 7 8 -1 24 -3 26 -11 14z"/>
<path d="M4237 1332 c-22 -24 -21 -45 1 -65 22 -20 53 -22 70 -5 14 14 16 62
2 53 -5 -3 -10 -15 -10 -26 0 -10 -7 -19 -15 -19 -19 0 -19 10 1 38 18 26 18
27 -12 36 -14 4 -26 0 -37 -12z m31 -24 c-6 -18 -28 -21 -28 -4 0 9 7 16 16
16 9 0 14 -5 12 -12z"/>
<path d="M1468 1305 c-27 -20 -48 -40 -48 -45 0 -14 13 -13 28 2 17 17 28 0
14 -23 -7 -11 -10 -25 -6 -30 3 -6 15 3 25 21 15 25 24 30 42 25 21 -6 21 -5
3 9 -10 9 -22 13 -27 11 -4 -3 -10 -1 -13 4 -3 5 5 16 19 25 24 16 34 36 18
36 -5 0 -29 -16 -55 -35z"/>
<path d="M3852 1223 c2 -10 -2 -17 -8 -16 -6 1 -11 -5 -11 -13 0 -12 3 -11 18
2 10 9 15 22 12 30 -7 20 -14 17 -11 -3z"/>
<path d="M1596 1221 c-4 -5 -2 -12 3 -15 5 -4 12 -2 15 3 4 5 2 12 -3 15 -5 4
-12 2 -15 -3z"/>
<path d="M4146 1208 c-13 -19 -14 -25 -3 -42 33 -50 79 -45 85 9 2 18 0 25 -7
20 -6 -3 -9 -10 -7 -14 3 -4 1 -13 -4 -21 -7 -12 -14 -12 -27 -4 -26 16 -29
44 -4 51 11 3 18 9 15 14 -9 16 -32 10 -48 -13z"/>
<path d="M1536 1175 c-49 -41 -31 -58 19 -18 19 15 35 31 35 35 0 19 -19 13
-54 -17z"/>
<path d="M1820 1185 c13 -14 26 -25 28 -25 3 0 -5 11 -18 25 -13 14 -26 25
-28 25 -3 0 5 -11 18 -25z"/>
<path d="M3800 1160 c-9 -6 -10 -10 -3 -10 6 0 15 5 18 10 8 12 4 12 -15 0z"/>
<path d="M1607 1122 c-42 -43 -44 -52 -19 -74 11 -11 24 -13 38 -8 26 10 38
26 25 34 -5 4 -12 2 -16 -4 -3 -5 -15 -10 -26 -10 -17 0 -18 3 -9 21 15 28 40
36 52 16 5 -10 13 -17 19 -17 5 0 3 11 -6 24 -8 13 -13 31 -9 40 10 27 -10 18
-49 -22z"/>
<path d="M3763 1143 c4 -3 1 -13 -6 -22 -11 -14 -10 -14 5 -2 16 12 16 31 1
31 -4 0 -3 -3 0 -7z"/>
<path d="M4040 1140 c0 -5 5 -10 10 -10 6 0 10 5 10 10 0 6 -4 10 -10 10 -5 0
-10 -4 -10 -10z"/>
<path d="M4077 1122 c-4 -5 9 -23 27 -41 19 -18 36 -29 39 -23 4 5 -9 23 -27
41 -19 18 -36 29 -39 23z"/>
<path d="M1900 1116 c0 -2 8 -10 18 -17 15 -13 16 -12 3 4 -13 16 -21 21 -21
13z"/>
<path d="M3717 1109 c7 -7 15 -10 18 -7 3 3 -2 9 -12 12 -14 6 -15 5 -6 -5z"/>
<path d="M1960 1066 c0 -2 7 -9 15 -16 9 -7 15 -8 15 -2 0 5 -7 12 -15 16 -8
3 -15 4 -15 2z"/>
<path d="M4018 1064 c-4 -4 -1 -19 8 -35 16 -31 7 -37 -28 -18 -11 6 -24 7
-28 2 -10 -11 76 -52 90 -43 8 5 5 22 -12 54 -13 26 -27 44 -30 40z"/>
<path d="M1690 1010 c-11 -11 -20 -23 -20 -28 0 -18 33 -52 51 -52 26 0 24 18
-3 22 -28 4 -33 21 -13 42 22 21 36 20 42 -4 7 -25 23 -26 23 -2 0 42 -47 55
-80 22z"/>
<path d="M3590 1026 c0 -2 7 -7 16 -10 8 -3 12 -2 9 4 -6 10 -25 14 -25 6z"/>
<path d="M2080 1004 c0 -2 9 -8 20 -14 11 -6 20 -7 20 -2 0 6 -9 12 -20 15
-11 3 -20 3 -20 1z"/>
<path d="M1811 928 c-44 -58 -44 -91 -1 -37 24 28 30 31 44 20 14 -12 13 -16
-10 -46 -14 -19 -21 -36 -15 -39 14 -9 64 61 57 80 -3 9 -15 18 -26 21 -19 5
-20 7 -5 23 10 11 12 20 6 24 -5 4 -28 -17 -50 -46z"/>
<path d="M2188 963 c7 -3 16 -2 19 1 4 3 -2 6 -13 5 -11 0 -14 -3 -6 -6z"/>
<path d="M3515 960 c-3 -6 1 -7 9 -4 18 7 21 14 7 14 -6 0 -13 -4 -16 -10z"/>
<path d="M3910 960 c0 -5 -7 -10 -15 -10 -21 0 -18 -10 14 -50 33 -39 52 -36
26 4 -10 15 -14 33 -10 46 4 11 2 20 -4 20 -6 0 -11 -4 -11 -10z"/>
<path d="M2278 933 c7 -3 16 -2 19 1 4 3 -2 6 -13 5 -11 0 -14 -3 -6 -6z"/>
<path d="M3350 890 c-8 -5 -10 -10 -5 -10 6 0 17 5 25 10 8 5 11 10 5 10 -5 0
-17 -5 -25 -10z"/>
<path d="M2410 880 c8 -5 20 -10 25 -10 6 0 3 5 -5 10 -8 5 -19 10 -25 10 -5
0 -3 -5 5 -10z"/>
<path d="M2467 876 c-16 -12 -15 -13 10 -13 16 0 22 2 15 4 -6 3 -10 9 -6 14
7 12 2 11 -19 -5z"/>
<path d="M3786 869 c-11 -17 -12 -27 -4 -45 20 -44 89 -40 88 5 -1 14 -2 14
-14 -1 -12 -17 -46 -25 -46 -12 0 3 11 15 25 26 20 16 23 23 14 34 -17 20 -46
17 -63 -7z m42 -11 c-3 -7 -12 -14 -21 -16 -12 -2 -15 1 -11 12 7 19 38 22 32
4z"/>
<path d="M2518 873 c7 -3 16 -2 19 1 4 3 -2 6 -13 5 -11 0 -14 -3 -6 -6z"/>
<path d="M1927 832 c-34 -37 -6 -91 41 -79 13 3 11 7 -10 15 -16 6 -28 19 -28
28 0 13 5 13 34 -5 30 -19 34 -19 40 -5 9 24 8 31 -10 48 -21 21 -47 20 -67
-2z m58 -13 c4 -6 5 -12 2 -15 -7 -7 -37 7 -37 17 0 13 27 11 35 -2z"/>
<path d="M2518 843 c7 -3 16 -2 19 1 4 3 -2 6 -13 5 -11 0 -14 -3 -6 -6z"/>
<path d="M2563 833 c9 -2 23 -2 30 0 6 3 -1 5 -18 5 -16 0 -22 -2 -12 -5z"/>
<path d="M3158 833 c7 -3 16 -2 19 1 4 3 -2 6 -13 5 -11 0 -14 -3 -6 -6z"/>
<path d="M2648 813 c7 -3 16 -2 19 1 4 3 -2 6 -13 5 -11 0 -14 -3 -6 -6z"/>
<path d="M3058 813 c7 -3 16 -2 19 1 4 3 -2 6 -13 5 -11 0 -14 -3 -6 -6z"/>
<path d="M2743 803 c15 -2 39 -2 55 0 15 2 2 4 -28 4 -30 0 -43 -2 -27 -4z"/>
<path d="M2908 803 c6 -2 18 -2 25 0 6 3 1 5 -13 5 -14 0 -19 -2 -12 -5z"/>
<path d="M3660 795 c-22 -27 -4 -48 36 -42 44 7 42 -15 -2 -24 -24 -5 -26 -7
-11 -14 27 -11 69 14 65 39 -3 18 -9 21 -40 18 -22 -2 -38 2 -38 8 0 5 9 10
19 10 11 0 23 5 26 10 10 16 -41 12 -55 -5z"/>
<path d="M2051 750 c-23 -42 -25 -50 -12 -50 6 0 18 14 28 30 19 33 21 34 41
21 12 -7 11 -14 -2 -40 -9 -17 -14 -37 -10 -43 8 -12 43 46 44 72 0 9 -15 23
-34 31 l-34 16 -21 -37z"/>
<path d="M3480 710 c-8 -5 -23 -11 -32 -14 -12 -4 -18 -16 -18 -35 0 -34 26
-65 46 -57 8 3 21 9 30 12 12 5 15 2 12 -12 -3 -15 -12 -19 -37 -17 -30 1 -32
0 -18 -14 20 -20 63 -10 72 17 6 18 -19 104 -34 121 -3 4 -13 3 -21 -1z m10
-35 c15 -18 9 -50 -9 -50 -19 0 -36 29 -28 49 8 20 21 21 37 1z"/>
<path d="M2303 703 c-7 -2 -13 -13 -13 -24 0 -11 -6 -28 -12 -39 -24 -38 32
-79 66 -50 20 16 27 50 10 50 -8 0 -14 -6 -14 -14 0 -20 -24 -36 -39 -26 -18
11 -7 40 16 40 13 0 14 3 5 12 -17 17 -15 38 3 38 8 0 15 5 15 10 0 10 -16 12
-37 3z"/>
<path d="M3190 650 c0 -5 5 -10 10 -10 6 0 10 5 10 10 0 6 -4 10 -10 10 -5 0
-10 -4 -10 -10z"/>
<path d="M3305 647 c-11 -7 -21 -13 -23 -14 -7 -3 21 -83 29 -83 4 0 7 19 6
43 -2 52 22 59 37 10 12 -43 31 -43 22 -1 -11 55 -32 68 -71 45z"/>
<path d="M2538 613 c-22 -5 -35 -50 -21 -72 12 -20 51 -27 66 -12 15 15 0 26
-16 12 -19 -15 -38 7 -30 37 6 24 23 28 41 10 6 -6 15 -8 19 -4 8 7 -24 37
-36 35 -3 -1 -14 -3 -23 -6z"/>
<path d="M2812 560 c3 -65 3 -65 33 -65 25 0 30 4 33 28 2 15 -1 27 -7 27 -6
0 -11 -9 -11 -20 0 -11 -7 -20 -15 -20 -10 0 -15 10 -15 30 0 25 4 30 25 30
14 0 25 5 25 10 0 6 -10 10 -21 10 -12 0 -28 8 -35 18 -12 15 -14 8 -12 -48z"/>
<path d="M3205 578 c8 -46 12 -55 21 -45 9 9 -7 87 -18 87 -6 0 -7 -16 -3 -42z"/>
<path d="M3106 603 c-14 -4 -17 -11 -12 -35 3 -17 6 -37 6 -44 0 -8 5 -14 10
-14 6 0 10 17 8 37 -1 22 3 38 10 41 7 2 12 8 12 13 0 9 -3 10 -34 2z"/>
<path d="M2670 585 c-11 -13 -8 -14 19 -9 42 9 41 -13 -1 -24 -23 -6 -33 -14
-33 -28 0 -15 8 -20 43 -22 l42 -3 0 38 c0 57 -40 84 -70 48z m50 -54 c0 -5
-7 -12 -16 -15 -22 -9 -24 -8 -24 9 0 8 9 15 20 15 11 0 20 -4 20 -9z"/>
<path d="M2952 578 c-16 -16 -15 -39 4 -66 18 -26 46 -29 65 -6 11 13 9 15
-16 12 -16 -2 -30 2 -32 10 -3 8 6 12 26 12 31 0 36 6 25 34 -7 19 -55 21 -72
4z m56 -16 c2 -7 -6 -12 -17 -12 -21 0 -27 11 -14 24 9 9 26 2 31 -12z"/>
</g>
</svg>
